<?xml version="1.0" encoding="UTF-8"?>
<svg width="133px" height="132px" viewBox="0 0 133 132" version="1.1" xmlns="http://www.w3.org/2000/svg" xmlns:xlink="http://www.w3.org/1999/xlink">
    <!-- Generator: Sketch 50.2 (55047) - http://www.bohemiancoding.com/sketch -->
    <title>g14</title>
    <desc>Created with Sketch.</desc>
    <defs></defs>
    <g id="Comunidade" stroke="none" stroke-width="1" fill="none" fill-rule="evenodd">
        <g transform="translate(-653.000000, -554.000000)" fill-rule="nonzero" id="Group-21">
            <g transform="translate(320.000000, 424.000000)">
                <g id="Group-7" transform="translate(201.000000, 0.000000)">
                    <g id="Group-5" transform="translate(129.000000, 0.000000)">
                        <g id="trophy-medal-winner-prize-37ca31b0a43c9f59" transform="translate(0.000000, 125.000000)">
                            <g id="g10" transform="translate(70.000000, 70.412998) scale(-1, 1) rotate(-180.000000) translate(-70.000000, -70.412998) translate(0.000000, 0.412998)">
                                <g id="g12">
                                    <g id="g14-Clipped">
                                        <g id="g14" transform="translate(0.000000, 1.000000)">
                                            <g id="g20" transform="translate(0.000000, 61.368973)" fill="#FFAC33">
                                                <path d="M22.0125786,55.0314465 L44.0251572,55.0314465 C48.0754717,55.0314465 51.3626834,55.4129979 51.3626834,51.3626834 L51.3626834,58.7002096 C51.3626834,62.7505241 48.0754717,66.0377358 44.0251572,66.0377358 L14.6750524,66.0377358 C7.33752621,66.0377358 1.52987421,58.2416143 3.6687631,47.6939203 C3.6687631,47.6939203 10.2395178,13.2992662 10.701782,11.1603774 C11.9234801,5.50314465 18.4979036,0 25.5272537,0 L51.0581761,0 C55.1084906,0 51.3626834,6.95597484 51.3626834,11.0062893 L51.3626834,18.3438155 C51.3626834,14.293501 48.0754717,11.0062893 44.0251572,11.0062893 L29.3501048,11.0062893 C25.2997904,11.0062893 22.6252621,14.8291405 22.0125786,18.3438155 C21.3998952,21.8584906 16.2049266,45.2468553 16.2049266,45.2468553 C14.9795597,52.2798742 17.9622642,55.0314465 22.0125786,55.0314465" id="path22"></path>
                                            </g>
                                            <g id="g24" transform="translate(83.693658, 61.368973)" fill="#FFAC33">
                                                <path d="M33.0188679,55.0314465 L11.0062893,55.0314465 C6.95597484,55.0314465 0.6860587,55.4129979 0.6860587,51.3626834 L0.6860587,58.7002096 C0.6860587,62.7505241 6.95597484,66.0377358 11.0062893,66.0377358 L40.3563941,66.0377358 C47.6939203,66.0377358 53.5052411,58.2416143 51.3626834,47.6939203 C51.3626834,47.6939203 45.3715933,13.1378407 44.865304,11.0062893 C43.5665618,5.50314465 37.3736897,0 30.1902516,0 L3.9769392,0 C-0.0770440252,0 0.6860587,6.95597484 0.6860587,11.0062893 L0.6860587,18.3438155 C0.6860587,14.293501 6.95597484,11.0062893 11.0062893,11.0062893 L25.6813417,11.0062893 C29.7316562,11.0062893 32.4098532,14.8291405 33.0188679,18.3438155 C33.6278826,21.8584906 38.8301887,45.2468553 38.8301887,45.2468553 C40.048218,52.2798742 37.0691824,55.0314465 33.0188679,55.0314465" id="path26"></path>
                                            </g>
                                            <g id="g28" transform="translate(46.626310, 17.343816)" fill="#FFAC33">
                                                <path d="M33.0188679,36.687631 C33.0188679,62.2148847 23.0801887,36.687631 23.0801887,36.687631 C23.0801887,36.687631 12.0738994,62.2148847 12.0738994,36.687631 C12.0738994,11.1603774 0,0 0,0 L23.0801887,0 L45.0927673,0 C45.0927673,0 33.0188679,11.1603774 33.0188679,36.687631" id="path30"></path>
                                            </g>
                                            <g id="g32" transform="translate(29.350105, 42.909382)" fill="#FFCC4D">
                                                <path d="M80.7127883,67.706499 C80.7127883,42.8506289 55.8752621,0.964360587 40.3563941,0.964360587 C24.8338574,0.964360587 0,42.8506289 0,67.706499 C0,86.7657233 3.6687631,90.889413 11.0062893,90.889413 C16.0471698,90.889413 33.110587,90.9884696 40.3563941,90.9884696 C45.4596436,90.9884696 62.0534591,90.9958071 66.0377358,90.9958071 C76.7395178,90.9958071 80.7127883,88.4827044 80.7127883,67.706499" id="path34"></path>
                                            </g>
                                            <g id="g36" transform="translate(33.018868, 6.337526)" fill="#C1694F">
                                                <path d="M69.706499,7.33752621 C69.706499,3.28721174 70.0880503,0 66.0377358,0 L7.33752621,0 C3.28721174,0 3.6687631,3.28721174 3.6687631,7.33752621 L3.6687631,11.0062893 C3.6687631,15.0566038 7.49161426,18.3438155 11.3107966,18.3438155 L62.3689727,18.3438155 C66.1918239,18.3438155 69.706499,15.0566038 69.706499,11.0062893 L69.706499,7.33752621 Z" id="path38"></path>
                                            </g>
                                            <g id="g40" transform="translate(29.350105, 0.375786)" fill="#C1694F">
                                                <path d="M80.7127883,7.33752621 C80.7127883,4.54926625 80.8668763,2.29297694 75.668239,2.29297694 L5.04454927,2.29297694 C0.304507338,2.29297694 0,4.54926625 0,7.33752621 L0,8.25471698 C0,11.0429769 2.25995807,13.2992662 5.04454927,13.2992662 L75.668239,13.2992662 C78.456499,13.2992662 80.7127883,11.0429769 80.7127883,8.25471698 L80.7127883,7.33752621 Z" id="path42"></path>
                                            </g>
                                        </g>
                                    </g>
                                </g>
                            </g>
                        </g>
                    </g>
                </g>
            </g>
        </g>
    </g>
</svg>