<?xml version="1.0" encoding="UTF-8"?>
<svg width="94px" height="94px" viewBox="0 0 94 94" version="1.1" xmlns="http://www.w3.org/2000/svg" xmlns:xlink="http://www.w3.org/1999/xlink">
    <!-- Generator: Sketch 50.2 (55047) - http://www.bohemiancoding.com/sketch -->
    <title>g14</title>
    <desc>Created with Sketch.</desc>
    <defs></defs>
    <g id="Comunidade" stroke="none" stroke-width="1" fill="none" fill-rule="evenodd">
        <g transform="translate(-523.000000, -593.000000)" fill-rule="nonzero" id="Group-21">
            <g transform="translate(320.000000, 424.000000)">
                <g id="Group-7" transform="translate(201.000000, 0.000000)">
                    <g id="Group-4" transform="translate(0.000000, 63.000000)">
                        <g id="trophy-medal-winner-prize-37ca31b0a43c9f59-copy" transform="translate(0.000000, 103.000000)">
                            <g id="g10" transform="translate(49.500000, 50.083333) scale(-1, 1) rotate(-180.000000) translate(-49.500000, -50.083333) translate(0.000000, 0.583333)">
                                <g id="g12">
                                    <g id="g14-Clipped">
                                        <g id="g14" transform="translate(1.867925, 0.625000)">
                                            <g id="g20" transform="translate(0.000000, 43.645833)" fill="#BDBDBD">
                                                <path d="M13.6981132,39.0625 L29.2641509,39.0625 C32.1283019,39.0625 34.4528302,39.3333333 34.4528302,36.4583333 L34.4528302,41.6666667 C34.4528302,44.5416667 32.1283019,46.875 29.2641509,46.875 L8.50943396,46.875 C3.32075472,46.875 -0.786084906,41.3411458 0.726415094,33.8541667 C0.726415094,33.8541667 5.37287736,9.44010417 5.69976415,7.921875 C6.56367925,3.90625 11.2127358,0 16.1834906,0 L34.2375,0 C37.1016509,0 34.4528302,4.9375 34.4528302,7.8125 L34.4528302,13.0208333 C34.4528302,10.1458333 32.1283019,7.8125 29.2641509,7.8125 L18.8867925,7.8125 C16.0226415,7.8125 14.1313679,10.5260417 13.6981132,13.0208333 C13.2648585,15.515625 9.59127358,32.1171875 9.59127358,32.1171875 C8.72476415,37.109375 10.8339623,39.0625 13.6981132,39.0625" id="path22"></path>
                                            </g>
                                            <g id="g24" transform="translate(57.315448, 43.645833)" fill="#BDBDBD">
                                                <path d="M23.3490566,39.0625 L7.78301887,39.0625 C4.91886792,39.0625 0.485141509,39.3333333 0.485141509,36.4583333 L0.485141509,41.6666667 C0.485141509,44.5416667 4.91886792,46.875 7.78301887,46.875 L28.5377358,46.875 C33.7264151,46.875 37.8358491,41.3411458 36.3207547,33.8541667 C36.3207547,33.8541667 32.0841981,9.32552083 31.7261792,7.8125 C30.807783,3.90625 26.4285377,0 21.3488208,0 L2.81226415,0 C-0.0544811321,0 0.485141509,4.9375 0.485141509,7.8125 L0.485141509,13.0208333 C0.485141509,10.1458333 4.91886792,7.8125 7.78301887,7.8125 L18.1603774,7.8125 C21.0245283,7.8125 22.9183962,10.5260417 23.3490566,13.0208333 C23.779717,15.515625 27.4584906,32.1171875 27.4584906,32.1171875 C28.3198113,37.109375 26.2132075,39.0625 23.3490566,39.0625" id="path26"></path>
                                            </g>
                                            <g id="g28" transform="translate(31.103538, 12.395833)" fill="#BDBDBD">
                                                <path d="M23.3490566,26.0416667 C23.3490566,44.1614583 16.3209906,26.0416667 16.3209906,26.0416667 C16.3209906,26.0416667 8.5379717,44.1614583 8.5379717,26.0416667 C8.5379717,7.921875 0,0 0,0 L16.3209906,0 L31.8870283,0 C31.8870283,0 23.3490566,7.921875 23.3490566,26.0416667" id="path30"></path>
                                            </g>
                                            <g id="g32" transform="translate(18.886792, 30.998177)" fill="#DEDEDE">
                                                <path d="M57.0754717,47.6041667 C57.0754717,29.9609375 39.5117925,0.229166667 28.5377358,0.229166667 C17.5610849,0.229166667 0,29.9609375 0,47.6041667 C0,61.1328125 2.59433962,64.0598958 7.78301887,64.0598958 C11.3476415,64.0598958 23.4139151,64.1302083 28.5377358,64.1302083 C32.1464623,64.1302083 43.8806604,64.1354167 46.6981132,64.1354167 C54.2658019,64.1354167 57.0754717,62.3515625 57.0754717,47.6041667" id="path34"></path>
                                            </g>
                                            <g id="g36" transform="translate(21.481132, 4.583333)" fill="#C1694F">
                                                <path d="M49.2924528,5.20833333 C49.2924528,2.33333333 49.5622642,0 46.6981132,0 L5.18867925,0 C2.3245283,0 2.59433962,2.33333333 2.59433962,5.20833333 L2.59433962,7.8125 C2.59433962,10.6875 5.29764151,13.0208333 7.99834906,13.0208333 L44.1037736,13.0208333 C46.8070755,13.0208333 49.2924528,10.6875 49.2924528,7.8125 L49.2924528,5.20833333 Z" id="path38"></path>
                                            </g>
                                            <g id="g40" transform="translate(18.886792, 0.351562)" fill="#C1694F">
                                                <path d="M57.0754717,5.20833333 C57.0754717,3.22916667 57.184434,1.62760417 53.5082547,1.62760417 L3.56721698,1.62760417 C0.215330189,1.62760417 0,3.22916667 0,5.20833333 L0,5.859375 C0,7.83854167 1.59811321,9.44010417 3.56721698,9.44010417 L53.5082547,9.44010417 C55.4799528,9.44010417 57.0754717,7.83854167 57.0754717,5.859375 L57.0754717,5.20833333 Z" id="path42"></path>
                                            </g>
                                        </g>
                                    </g>
                                </g>
                            </g>
                        </g>
                    </g>
                </g>
            </g>
        </g>
    </g>
</svg>